<svg width="19" height="20" viewBox="0 0 19 20" fill="none" xmlns="http://www.w3.org/2000/svg">
<path d="M0 17.5V5.5H19V17.5C19 18.6 18.1 19.5 17 19.5H2C0.9 19.5 0 18.6 0 17.5Z" fill="#FFCDD2"/>
<path d="M19 3.5V6.5H0V3.5C0 2.4 0.9 1.5 2 1.5H17C18.1 1.5 19 2.4 19 3.5Z" fill="#F44336"/>
<path d="M14 5C14.8284 5 15.5 4.32843 15.5 3.5C15.5 2.67157 14.8284 2 14 2C13.1716 2 12.5 2.67157 12.5 3.5C12.5 4.32843 13.1716 5 14 5Z" fill="#B71C1C"/>
<path d="M5 5C5.82843 5 6.5 4.32843 6.5 3.5C6.5 2.67157 5.82843 2 5 2C4.17157 2 3.5 2.67157 3.5 3.5C3.5 4.32843 4.17157 5 5 5Z" fill="#B71C1C"/>
<path d="M14 0C13.45 0 13 0.45 13 1V3.5C13 4.05 13.45 4.5 14 4.5C14.55 4.5 15 4.05 15 3.5V1C15 0.45 14.55 0 14 0ZM5 0C4.45 0 4 0.45 4 1V3.5C4 4.05 4.45 4.5 5 4.5C5.55 4.5 6 4.05 6 3.5V1C6 0.45 5.55 0 5 0Z" fill="#BDBDBD"/>
<path d="M8.60156 16.15C8.60156 16.05 8.60156 15.9 8.65156 15.8C8.70156 15.7 8.75156 15.6 8.85156 15.55C8.95156 15.5 9.00156 15.4 9.10156 15.4C9.20156 15.35 9.35156 15.35 9.45156 15.35C9.55156 15.35 9.70156 15.35 9.80156 15.4L10.1016 15.55C10.2016 15.6 10.2516 15.7 10.3016 15.8C10.3516 15.9 10.3516 16 10.3516 16.15C10.3516 16.25 10.3516 16.4 10.3016 16.5C10.2516 16.6 10.2016 16.7 10.1016 16.75C10.0016 16.8 9.95156 16.9 9.80156 16.9C9.65156 16.9 9.65156 17 9.50156 17C9.35156 17 9.25156 17 9.15156 16.95C9.05156 16.9 8.95156 16.85 8.90156 16.8C8.80156 16.75 8.75156 16.65 8.70156 16.55C8.65156 16.4 8.60156 16.3 8.60156 16.15ZM10.1516 14H8.85156L8.65156 8.5H10.3016L10.1516 14Z" fill="#F44336"/>
</svg>
