<svg width="18" height="19" viewBox="0 0 18 19" fill="none" xmlns="http://www.w3.org/2000/svg">
<path d="M0.75 0.5H13.35C15.0474 0.5 15.8952 0.5 16.4226 1.0274C16.95 1.5548 16.95 2.4026 16.95 4.1V9.5C16.95 11.1974 16.95 12.0452 16.4226 12.5726C15.8952 13.1 15.0474 13.1 13.35 13.1H7.05M7.95 4.55H13.35M0.75 14V10.4C0.75 9.5513 0.75 9.1274 1.0137 8.8637C1.2774 8.6 1.7013 8.6 2.55 8.6H4.35M0.75 14H4.35M0.75 14V18.5M4.35 8.6V14M4.35 8.6H9.75M4.35 14V18.5" stroke="#018450" stroke-linecap="round" stroke-linejoin="round"/>
<path d="M4.35 4.55C4.35 5.02739 4.16036 5.48523 3.82279 5.82279C3.48523 6.16036 3.02739 6.35 2.55 6.35C2.07261 6.35 1.61477 6.16036 1.27721 5.82279C0.939642 5.48523 0.75 5.02739 0.75 4.55C0.75 4.07261 0.939642 3.61477 1.27721 3.27721C1.61477 2.93964 2.07261 2.75 2.55 2.75C3.02739 2.75 3.48523 2.93964 3.82279 3.27721C4.16036 3.61477 4.35 4.07261 4.35 4.55Z" stroke="#018450" stroke-width="1.5"/>
</svg>
